<?xml version="1.0" standalone="no"?>
<!DOCTYPE svg PUBLIC "-//W3C//DTD SVG 20010904//EN"
 "http://www.w3.org/TR/2001/REC-SVG-20010904/DTD/svg10.dtd">
<svg version="1.0" xmlns="http://www.w3.org/2000/svg"
 width="300.000000pt" height="300.000000pt" viewBox="0 0 300.000000 300.000000"
 preserveAspectRatio="xMidYMid meet">
<metadata>
Created by potrace 1.14, written by Peter Selinger 2001-2017
</metadata>
<g transform="translate(0.000000,300.000000) scale(0.100000,-0.100000)"
fill="#000000" stroke="none">
<path d="M840 2906 c0 -55 -2 -56 -142 -56 -115 0 -129 -2 -124 -16 36 -94 -8
-146 -135 -158 l-69 -7 0 -52 c-1 -79 -32 -107 -119 -107 -64 0 -81 -16 -81
-80 0 -27 -4 -60 -10 -74 -8 -22 -16 -26 -50 -26 l-40 0 2 -772 3 -773 40 -5
c39 -5 40 -6 40 -45 0 -40 0 -40 -42 -43 -56 -4 -55 -22 1 -22 41 0 44 -2 50
-31 3 -17 6 -49 6 -70 0 -54 20 -69 91 -69 74 0 92 -16 110 -97 7 -32 13 -59
14 -61 1 -1 28 -7 61 -13 69 -13 129 -41 144 -69 8 -14 7 -29 -5 -56 -8 -20
-15 -38 -15 -40 0 -2 59 -4 130 -4 l130 0 0 -45 0 -45 670 0 670 0 0 45 0 45
129 0 129 0 -7 33 c-10 45 4 92 35 112 16 10 57 20 98 24 l71 6 -3 33 c-4 44
15 99 41 117 14 9 45 15 84 15 72 0 83 11 83 82 0 62 9 88 31 88 10 0 21 5 24
10 3 6 -3 10 -14 10 -13 0 -23 8 -27 24 -11 45 -2 61 39 64 l37 3 0 720 0 719
-24 0 c-31 0 -56 25 -56 54 0 28 15 42 50 49 19 3 16 5 -11 6 -34 1 -37 4 -43
39 -3 20 -6 54 -6 74 0 54 -20 68 -94 68 -77 0 -94 15 -110 96 l-11 57 -83 22
c-78 21 -132 53 -132 79 0 6 9 28 20 49 l20 37 -130 0 c-118 0 -130 2 -140 19
-5 11 -10 29 -10 40 l0 21 -660 0 -660 0 0 -24z m606 -391 c17 -17 36 -25 59
-25 38 0 33 10 70 -140 24 -99 23 -98 53 -54 l27 39 3 -70 c1 -38 -1 -94 -5
-124 -7 -50 -10 -54 -43 -65 -21 -7 -47 -28 -68 -56 l-34 -45 23 -10 c18 -8
23 -16 21 -37 -5 -40 14 -68 45 -68 15 0 35 -7 45 -17 16 -14 18 -34 18 -198
0 -195 -3 -205 -51 -205 -40 0 -59 -33 -59 -102 l0 -58 -354 0 c-338 0 -354 1
-379 20 -14 11 -33 20 -42 20 -35 0 -55 20 -55 55 0 19 -7 40 -16 47 -44 36
-55 51 -50 65 3 8 6 93 6 188 0 171 0 174 23 181 28 9 37 22 37 60 0 39 16 54
57 54 18 0 33 4 33 10 0 10 -23 17 -70 22 l-25 3 0 235 0 235 43 9 c23 6 42
15 42 21 0 29 50 34 333 34 l288 1 25 -25z m784 -500 l0 -525 -173 0 c-121 0
-177 4 -185 12 -9 9 -12 139 -12 525 l0 513 185 0 185 0 0 -525z m0 -655 l0
-80 -185 0 -186 0 3 67 c4 91 8 93 211 93 l157 0 0 -80z m-1366 -280 l6 -30
90 0 90 0 -11 -27 c-14 -38 -3 -72 27 -83 15 -6 192 -10 425 -10 327 0 406 3
434 15 44 18 51 35 30 74 l-16 31 96 0 96 0 6 30 6 30 158 0 159 0 0 -159 0
-159 -70 -12 c-94 -16 -113 -35 -90 -94 l10 -26 -81 0 c-53 0 -90 -5 -111 -16
-29 -15 -30 -18 -26 -65 l5 -49 -167 0 -167 0 -6 -30 -6 -30 -251 0 -250 0 -6
30 -7 30 -158 0 -159 0 6 43 c9 66 -14 81 -132 85 l-94 4 0 47 c0 41 -3 49
-25 59 -14 7 -36 12 -49 12 -13 0 -38 3 -55 6 l-31 7 0 158 0 159 159 0 159 0
6 -30z"/>
<path d="M1118 2370 c-61 -11 -71 -17 -64 -46 4 -13 -1 -39 -11 -59 -15 -31
-15 -40 -4 -68 8 -18 13 -47 12 -65 -1 -39 14 -47 111 -57 50 -5 68 -4 74 6
13 21 4 282 -9 291 -14 9 -46 8 -109 -2z"/>
<path d="M1040 1830 c-6 -11 -8 -47 -4 -87 3 -37 1 -87 -4 -111 -13 -55 -6
-81 24 -88 17 -4 24 -13 24 -29 0 -34 24 -53 74 -60 72 -11 88 -5 100 40 9 31
19 43 45 55 l33 15 -6 79 c-4 43 -9 83 -12 88 -3 4 -23 8 -44 8 l-39 0 15 42
c14 39 13 44 -3 55 -10 8 -50 13 -105 13 -76 0 -89 -2 -98 -20z"/>
</g>
</svg>
