<svg width="388" height="33" viewBox="0 0 388 33" fill="none" xmlns="http://www.w3.org/2000/svg">
<path d="M369.585 32.9168C370.333 32.937 371.081 32.9572 371.828 32.9816L371.81 32.9862H386.974C387.907 30.6243 387.613 29.673 385.931 29.673C384.94 29.6843 383.949 29.7108 382.958 29.7374C381.121 29.7865 379.283 29.8357 377.448 29.7879C376.843 29.7694 376.254 29.5061 375.654 29.2377C375.361 29.1066 375.066 28.9744 374.764 28.8689C374.957 28.6199 375.139 28.3607 375.322 28.1015C375.735 27.5139 376.148 26.9264 376.681 26.4609C377.06 26.1295 377.524 25.8923 377.988 25.6552C378.464 25.4122 378.939 25.1692 379.323 24.825C381.068 23.3218 382.709 21.7021 384.235 19.977C384.43 19.7501 384.636 19.5192 384.844 19.2847C385.992 17.9943 387.239 16.5922 387.411 15.1382C387.772 12.0097 387.685 8.82841 387.598 5.6527L387.598 5.6462C387.573 4.74245 387.549 3.83915 387.535 2.93766C387.512 1.3385 386.634 0.0839846 384.961 0.0610082C379.534 -0.0171117 374.098 -0.0630561 368.68 0.198875C367.196 0.2724 364.953 1.14091 364.494 2.23458C363.934 3.5344 363.926 5.06623 363.918 6.62033C363.915 7.28591 363.911 7.95557 363.864 8.61284H370.38C370.639 8.25954 370.875 7.92679 371.1 7.61014C371.539 6.99188 371.934 6.43498 372.366 5.90621C375.458 2.09736 375.766 2.32641 379.716 5.2614L379.718 5.26288C381.639 6.6966 381.979 8.066 381.28 9.78923C381.213 9.95503 381.145 10.1252 381.075 10.2982L381.075 10.3002C380.36 12.0833 379.524 14.1701 378.1 14.9405C376.819 15.6364 376.096 16.8537 375.383 18.0549C374.43 19.6617 373.493 21.2397 371.258 21.5026C371.189 21.5118 371.097 21.76 371.097 21.8932C371.194 23.4326 370.22 23.7267 368.942 23.9197C368.518 23.9798 368.174 24.3675 367.812 24.7754L367.81 24.7767C367.729 24.868 367.647 24.9603 367.563 25.0502C367.339 25.2906 367.12 25.543 366.898 25.7985L366.897 25.7996C366.665 26.0662 366.431 26.3361 366.185 26.5988L366.013 26.7823C365.599 27.2259 365.211 27.6411 364.705 28.1061C364.481 28.3119 364.251 28.4968 364.02 28.6828L364.019 28.6835C363.657 28.9748 363.291 29.2688 362.941 29.6501C362.543 30.0824 362.201 30.5631 361.859 31.0435C361.706 31.2575 361.554 31.4715 361.397 31.6812C361.605 31.7884 361.812 31.9203 362.019 32.0522C362.468 32.3386 362.918 32.6254 363.386 32.66C365.448 32.8051 367.517 32.8609 369.584 32.9168L369.585 32.9168Z" fill="black"/>
<path d="M332.819 32.9816C332.589 31.047 332.359 29.1124 332.102 26.971C334.34 26.9986 335.952 26.778 336.168 24.5493C336.196 24.269 337.005 23.8784 337.46 23.8646C339.151 23.814 340.01 23.0926 339.702 21.2269C341.899 21.2958 343.163 20.8639 344.412 18.7179C344.704 18.2168 345.018 17.7205 345.334 17.2205C346.085 16.0332 346.85 14.8243 347.358 13.4792C347.459 13.2127 347.67 12.8129 347.877 12.7808C350.679 12.3434 350.417 10.6025 350.17 8.96389C350.085 8.39887 350.001 7.846 350.046 7.36292C350.212 5.57076 346.209 2.69871 344.32 3.01579C343.913 3.10403 343.528 3.2747 343.189 3.51731C342.85 3.75993 342.564 4.06934 342.349 4.42653C340.81 7.4778 336.702 9.50893 333.352 8.58987C333.108 8.46931 332.896 8.29133 332.736 8.07122C332.576 7.85111 332.472 7.59545 332.432 7.32617C332.359 5.96251 332.371 4.59639 332.382 3.25474C332.387 2.76081 332.391 2.27019 332.391 1.78424C336.639 -0.242528 340.972 -0.0545979 345.279 0.132244C347.173 0.214405 349.063 0.296356 350.938 0.189688C351.79 0.14263 352.653 0.36403 353.52 0.586708C354.093 0.733692 354.668 0.881233 355.243 0.952493C357.477 1.22821 357.5 2.68492 357.454 4.40356C357.371 7.79488 357.403 11.1908 357.454 14.5821C357.454 15.8366 357.321 16.7465 355.845 17.1371C355.363 17.2658 354.958 17.7341 354.57 18.1824C354.46 18.3101 354.351 18.4363 354.242 18.5524C354.128 18.672 354.057 18.8423 353.987 19.0083C353.901 19.2126 353.817 19.4104 353.663 19.4991C351.242 20.8912 349.183 22.8339 347.652 25.1697C347.386 25.5646 346.833 25.7513 346.267 25.9425C345.766 26.1117 345.255 26.2844 344.922 26.608C344.428 27.0896 344.147 27.782 343.864 28.4784C343.742 28.7788 343.619 29.0799 343.48 29.3652C343.738 29.4211 343.996 29.4918 344.254 29.5625C344.823 29.7182 345.391 29.8738 345.956 29.8706C347.929 29.8706 349.901 29.8204 351.869 29.7702C353.568 29.7269 355.264 29.6837 356.953 29.673C358.387 29.673 358.593 30.8908 357.564 32.9954H332.819V32.9816Z" fill="black"/>
<path d="M7.88129 32.9816C7.53306 32.5995 7.18446 32.2177 6.8359 31.836L6.83522 31.8352C5.95612 30.8725 5.07677 29.9095 4.20506 28.9423C4.1698 28.9039 4.13621 28.8531 4.10313 28.8031C4.04138 28.7098 3.98139 28.6191 3.91556 28.6161C1.86953 28.5443 1.75413 27.357 1.63685 26.1503C1.58133 25.5791 1.5254 25.0036 1.26408 24.5401C-0.251745 21.7959 -0.0628753 19.0053 0.125115 16.2276C0.201558 15.0982 0.277855 13.9708 0.239331 12.8497C0.178167 11.0469 0.574789 9.22844 0.971064 7.41153C1.14047 6.63482 1.30981 5.8584 1.44329 5.08363C1.47546 4.88144 1.66846 4.54598 1.78334 4.54598C3.42343 4.5616 4.20128 3.53233 4.97882 2.50347C5.34502 2.01891 5.71114 1.53444 6.16725 1.15925C7.07476 0.509233 8.16198 0.157535 9.27826 0.152886C13.1868 0.0881842 17.0973 0.0837117 21.0072 0.0792397C23.2065 0.0767243 25.4057 0.074209 27.6042 0.0609746C28.6402 0.111054 29.6318 0.4968 30.4292 1.15997C31.2267 1.82314 31.7868 2.72773 32.0249 3.7372C32.0852 4.05266 32.1103 4.38392 32.1355 4.71592C32.2256 5.90253 32.3163 7.09858 34.0147 7.61562C34.4191 7.74429 34.4742 9.53646 34.3318 10.5061C34.272 10.8829 33.2243 11.3286 32.6039 11.3654C31.6389 11.4191 30.6707 11.4096 29.7002 11.4C28.6789 11.39 27.6551 11.3799 26.6301 11.4435C24.9022 11.5538 24.36 10.8139 24.723 9.2975C25.1458 7.5467 25.155 6.08081 22.8481 5.78671C22.5615 5.72206 22.3064 5.55957 22.1267 5.32718C21.9314 5.07675 21.7544 4.76099 21.5795 4.44893C21.2442 3.85054 20.9165 3.26574 20.4816 3.18118C19.3145 2.94843 18.0897 2.99235 16.868 3.03617C16.4013 3.0529 15.9351 3.06962 15.4727 3.07089C15.3256 3.07089 15.0729 3.13064 15.0545 3.20416C14.6324 4.89628 13.3202 5.76958 12.0313 6.62741C11.6506 6.88081 11.2719 7.13285 10.9188 7.40425C8.46907 9.30123 8.61841 11.7099 8.76752 14.115C8.81925 14.9492 8.87094 15.783 8.81414 16.5948C8.68248 18.3226 8.66098 20.057 8.74979 21.7875C8.77962 22.2983 9.10896 22.8061 9.4236 23.2912C9.49674 23.404 9.56909 23.5155 9.63669 23.6256C9.99952 24.2338 10.4313 24.7982 10.9234 25.3075C11.5825 25.9626 12.3127 26.5282 13.0474 27.0973C14.003 27.8376 14.9662 28.5837 15.7898 29.5397C16.2887 30.1149 17.6225 29.9869 18.9527 29.8593C19.5461 29.8023 20.1387 29.7454 20.6562 29.7511C20.7986 29.7511 21.0606 29.6776 21.0698 29.6133C21.2397 28.224 22.2706 27.6098 23.3039 26.9942C24.1982 26.4614 25.0942 25.9276 25.4353 24.8893C25.5208 24.6226 25.7768 24.4042 26.0271 24.1906C26.1132 24.1172 26.1986 24.0443 26.2762 23.9703C26.8585 23.4122 27.4512 22.8595 28.0426 22.308L28.0455 22.3052C28.2372 22.1264 28.4288 21.9478 28.6198 21.7691L28.3165 21.0844C28.8951 21.0844 29.4737 21.0819 30.0522 21.0793L30.0535 21.0793C31.2116 21.0742 32.3696 21.0691 33.5276 21.0844C33.892 21.1142 34.2325 21.2779 34.4834 21.5439C35.6965 22.9501 34.9751 26.9112 33.3713 27.8211C33.3015 27.861 33.222 27.8931 33.1425 27.9252C33.0023 27.9818 32.8619 28.0385 32.7739 28.1382C31.3762 29.7067 29.9961 31.2839 28.6121 32.8657L28.5187 32.9724H27.5997C26.8078 32.9398 26.0158 32.8979 25.2239 32.8561C23.4517 32.7624 21.6793 32.6688 19.9071 32.6783C17.2243 32.6783 14.5391 32.7694 11.8549 32.8604L11.8531 32.8604C10.676 32.9003 9.49899 32.9402 8.32244 32.9724L7.88129 32.9816Z" fill="black"/>
<path d="M165.169 20.5689L165.169 20.5744V20.5652L165.169 20.5689Z" fill="black"/>
<path fill-rule="evenodd" clip-rule="evenodd" d="M151.019 28.0793C152.055 29.8677 153.072 31.6237 154.747 32.9816L155.702 32.9862C156.769 32.9587 157.835 32.9249 158.902 32.8912H158.903C161.393 32.8123 163.884 32.7335 166.377 32.7335C168.158 32.7271 169.939 32.8075 171.722 32.8879C172.501 32.9231 173.281 32.9583 174.061 32.9862H175.439C175.513 32.7788 175.615 32.5702 175.718 32.3609C175.916 31.9585 176.115 31.5532 176.115 31.1481C176.136 24.6196 176.129 18.0931 176.122 11.5673V11.5622C176.118 8.30121 176.115 5.04043 176.115 1.77966C176.115 0.534333 175.632 0.0426417 174.332 0.0748087C172.373 0.126183 170.412 0.116978 168.237 0.106769C167.3 0.102368 166.322 0.0977795 165.288 0.0977795C165.383 0.572582 165.454 1.04231 165.524 1.50256L165.524 1.50358C165.674 2.49513 165.817 3.44272 166.175 4.30246C166.956 6.18193 166.612 7.05963 164.567 7.10099C162.099 7.15613 159.645 7.1929 157.214 7.00449C155.698 6.88502 154.728 6.97692 154.535 8.76448C154.509 9.01034 154.106 9.21037 153.689 9.41751C153.459 9.53171 153.224 9.64807 153.046 9.77545C152.461 10.1343 151.917 10.5565 151.424 11.0346C150.831 11.6888 150.322 12.4143 149.908 13.1943C149.344 14.1386 148.94 15.1696 148.713 16.2456C148.594 17.1798 148.633 18.1365 148.673 19.0938C148.693 19.5726 148.713 20.0521 148.713 20.5284C148.741 22.679 148.86 24.5079 150.188 26.6723C150.474 27.1387 150.747 27.6094 151.018 28.0779L151.019 28.0793ZM163.694 28.0877C165.402 25.7314 165.522 23.1685 165.169 20.5689C165.412 17.8735 165.549 15.3526 163.666 13.0886C162.494 11.6779 161.189 11.3792 160.293 12.9738C160.252 13.0474 160.21 13.1208 160.169 13.194L160.168 13.1951C159.364 14.6203 158.594 15.9855 159.158 17.978C159.443 18.9877 159.314 20.1013 159.184 21.2237C159.077 22.1446 158.969 23.0717 159.089 23.9519C159.316 25.7342 159.97 27.4354 160.996 28.9102C161.777 29.9671 162.876 29.2135 163.694 28.0877Z" fill="black"/>
<path d="M303.904 32.9633L303.905 32.9816L303.882 32.9633H303.904Z" fill="black"/>
<path fill-rule="evenodd" clip-rule="evenodd" d="M321.804 32.9633H303.904C303.888 32.6941 303.884 32.421 303.881 32.1477C303.873 31.5168 303.865 30.8854 303.703 30.3026C303.505 29.5857 303.018 28.4645 302.513 28.4001C300.925 28.1401 300.935 27.3113 300.949 26.0887L300.95 25.9968C301.029 19.78 301.012 13.5674 300.994 7.35098L300.992 6.53578C300.992 5.36398 301.024 4.62873 302.467 3.9716C303.139 3.65886 303.499 2.67993 303.89 1.61422C304.074 1.11402 304.264 0.594696 304.498 0.116167C306.001 0.116167 307.541 0.110155 309.108 0.104039C313.021 0.0887676 317.099 0.0728519 321.174 0.148323C324.037 0.203466 325.457 1.90372 325.553 4.74361C325.58 5.58471 325.641 6.42488 325.703 7.26454L325.704 7.28177C325.778 8.30803 325.853 9.33354 325.866 10.359C325.866 11.6595 325.912 12.767 327.594 13.0243C327.897 13.0703 328.278 13.7688 328.31 14.1869C328.402 15.3494 328.38 16.5196 328.358 17.6834L328.352 18.0286C328.352 18.3962 328.31 19.0074 328.117 19.0855C325.062 20.2712 325.355 22.8165 325.605 24.9878L325.606 24.9894C325.646 25.3419 325.686 25.6852 325.71 26.0106C325.953 29.4571 324.602 31.4652 321.804 32.9633ZM317.727 14.1364C317.695 14.889 317.663 15.6417 317.663 16.3881C317.663 16.9788 317.633 17.5759 317.602 18.1729L317.602 18.1745C317.536 19.4764 317.47 20.778 317.718 22.0127C318.115 23.917 317.276 25.3148 316.44 26.7065C316.074 27.3164 315.709 27.9251 315.448 28.5748C315.039 29.6547 312.544 29.7512 311.823 28.7356C310.676 27.0617 309.637 25.3165 308.712 23.5108C308.465 22.963 308.423 22.3454 308.592 21.7691C309.69 18.1389 309.557 14.5362 308.638 10.9013C308.454 10.2557 308.496 9.56667 308.758 8.94831L308.91 8.66902C309.793 7.04709 310.698 5.38655 311.914 4.02216C312.388 3.48911 314.414 3.36044 314.754 3.81997C315.954 5.35479 317.19 7.12856 317.548 8.96668C317.876 10.6375 317.802 12.3869 317.727 14.1364Z" fill="black"/>
<path fill-rule="evenodd" clip-rule="evenodd" d="M179.952 25.2064C179.492 28.6207 179.984 31.5249 183.66 32.9816L184.565 32.9587C185.205 32.9286 185.846 32.8893 186.486 32.8499C187.806 32.7687 189.127 32.6875 190.447 32.6875C193.492 32.6692 196.537 32.6753 199.581 32.6814H199.583C201.105 32.6845 202.628 32.6875 204.151 32.6875C204.666 32.7379 205.177 32.8333 205.676 32.9725H206.595C207.611 31.6582 207.877 30.5461 206.232 29.3606C205.593 28.8964 205.18 27.7292 205.18 26.8791C205.12 22.7433 205.143 18.6076 205.304 14.4718C205.4 12.0909 204.043 10.57 202.687 9.05037C202.088 8.37912 201.49 7.7079 201.017 6.96313C200.941 6.84363 200.628 6.8554 200.352 6.86575C200.278 6.86854 200.207 6.87122 200.143 6.87122C199.523 6.87319 198.902 6.87498 198.281 6.87676C194.558 6.88745 190.833 6.89815 187.111 6.94935C186.615 6.96417 186.144 7.17383 185.802 7.53295C185.15 8.36156 184.536 9.21973 183.92 10.079C183.451 10.735 182.98 11.3917 182.493 12.0363C182.251 12.3187 181.911 12.4992 181.542 12.5418C179.667 12.7101 179.769 13.9054 179.868 15.0709C179.883 15.2421 179.898 15.4127 179.906 15.5793C179.978 17.0562 181.002 17.067 182.015 17.0778C182.158 17.0793 182.302 17.0808 182.442 17.0865C183.048 17.04 183.657 17.0755 184.253 17.1922C184.487 17.2695 184.702 17.3977 184.88 17.5678C185.059 17.7379 185.198 17.9454 185.287 18.1756C185.271 18.4176 185.199 18.6524 185.075 18.8609C184.951 19.0694 184.78 19.2456 184.575 19.375C183.57 19.9679 182.501 20.4998 181.33 21.0828C180.895 21.2995 180.445 21.5233 179.979 21.7599C180.054 22.9079 180.045 24.0598 179.952 25.2064ZM193.448 22.8353L193.512 23.0604C193.699 23.0604 193.892 23.0445 194.086 23.0287C194.525 22.9926 194.965 22.9564 195.332 23.1064C196.049 23.3867 196.867 23.8508 197.17 24.462C197.32 24.7577 196.675 25.5089 196.215 26.0449L196.118 26.1576C196.014 26.2843 195.911 26.4143 195.807 26.5452C195.322 27.1552 194.824 27.7828 194.188 28.1612C193.338 28.6805 191.812 29.4249 191.38 29.0802C190.214 28.1623 189.32 26.8686 188.453 25.6142C188.356 25.4745 188.26 25.3353 188.164 25.1972C188.03 25.0364 188.646 24.0622 189.083 23.9197C190.11 23.5762 191.176 23.3415 192.242 23.1069L192.245 23.1064C192.646 23.018 193.048 22.9296 193.448 22.8353ZM193.205 14.89V14.8532C192.755 14.9336 192.295 14.9352 191.844 14.8578C191.101 14.5199 190.379 14.1346 189.685 13.7044C189.869 13.5109 190.044 13.2904 190.219 13.07C190.635 12.547 191.051 12.0247 191.578 11.8663C192.68 11.5492 193.849 11.5492 194.951 11.8663C195.483 12.0256 195.907 12.5407 196.33 13.0545C196.517 13.2816 196.703 13.5086 196.899 13.7044C196.228 14.1439 195.522 14.5296 194.79 14.8578C194.466 14.9753 194.088 14.9458 193.709 14.9164C193.539 14.9032 193.369 14.89 193.205 14.89Z" fill="black"/>
<path fill-rule="evenodd" clip-rule="evenodd" d="M42.3 32.9817C42.3 32.9081 42.3 32.7841 42.2494 32.7703C38.7929 31.5413 38.8961 28.9128 38.9991 26.2905C39.0193 25.7755 39.0395 25.26 39.0327 24.7561V21.7921C39.412 21.5896 39.7881 21.4027 40.1564 21.2197C41.0328 20.7842 41.8647 20.3708 42.5895 19.8208C42.9728 19.5293 43.1814 19.0108 43.3899 18.4925C43.4838 18.2589 43.5778 18.0253 43.6877 17.8126C43.4673 17.7352 43.2488 17.6408 43.0307 17.5466C42.5758 17.3502 42.1225 17.1545 41.6566 17.1141C39.1338 16.8982 38.6651 16.4524 38.8627 14.1134C38.8903 13.8239 38.95 13.2955 39.0373 13.2863C40.4021 13.1361 41.0049 12.1818 41.6064 11.2294C42.0176 10.5784 42.4282 9.92832 43.0812 9.53652C43.1396 9.50256 43.2064 9.47182 43.2735 9.44096C43.4333 9.36743 43.5946 9.29325 43.6464 9.17349C44.6944 6.80514 46.6022 6.9039 48.5171 7.00303C48.9615 7.02603 49.4063 7.04906 49.8408 7.04127C51.9157 7.0046 53.9906 6.95574 56.0668 6.90685C57.1127 6.88222 58.1593 6.85758 59.206 6.83449C59.3582 6.81277 59.512 6.80507 59.6656 6.8115C60.2629 6.9172 63.5394 11.2 63.5394 11.8663C63.5394 13.0546 63.525 14.2438 63.5106 15.4329C63.4776 18.1613 63.4445 20.8903 63.5853 23.6073C63.605 23.9915 63.6045 24.3866 63.6039 24.7852C63.6012 26.7131 63.5983 28.7228 65.883 29.9718C66.1469 30.1131 66.0027 30.9806 65.8586 31.8471C65.7919 32.248 65.7253 32.6486 65.6992 32.9771H64.7801C63.436 32.947 62.0923 32.9108 60.7488 32.8745L60.7468 32.8745C57.7734 32.7942 54.8008 32.714 51.826 32.7014C49.8609 32.7014 47.8957 32.7853 45.9306 32.8692C45.0237 32.9079 44.1168 32.9466 43.2098 32.9771L42.3 32.9817ZM52.2947 23.0467L52.2534 22.8858C50.9907 23.0745 49.7425 23.3494 48.5174 23.7084C48.2268 23.8497 47.9716 24.0543 47.7704 24.3072C47.5692 24.5601 47.4272 24.8548 47.3548 25.1697C47.171 26.3782 49.7351 29.3652 50.9529 29.2687C51.7282 29.2107 52.5165 28.5911 53.1879 28.0634L53.2505 28.0142C53.8684 27.4918 54.4153 26.8908 54.8773 26.2266C54.9391 26.1444 55.0064 26.0584 55.0756 25.9701C55.4591 25.4802 55.9014 24.9153 55.7963 24.4988C55.6722 23.9335 54.9186 23.3453 54.2983 23.0972C53.8703 22.926 53.4095 22.967 52.9385 23.0088C52.7268 23.0277 52.513 23.0467 52.2993 23.0467H52.2947ZM52.4647 14.8487C52.8805 14.9497 53.3133 14.9591 53.733 14.8762C54.4042 14.5664 55.043 14.1908 55.6401 13.755C55.474 13.5571 55.3215 13.3334 55.1691 13.1097C54.8366 12.6218 54.5044 12.1343 54.0317 11.9169C53.3376 11.6147 52.4547 11.6609 51.6314 11.7039C51.5283 11.7093 51.4259 11.7147 51.3251 11.7193C50.0798 11.779 48.6047 11.9536 48.8069 13.5574C48.8545 13.9383 49.6848 14.2361 50.4652 14.516C50.7394 14.6144 51.0074 14.7105 51.2332 14.8073C51.6418 14.8762 52.0584 14.884 52.4693 14.8303L52.4647 14.8487Z" fill="black"/>
<path fill-rule="evenodd" clip-rule="evenodd" d="M91.1828 32.7556C91.2582 32.8312 91.3336 32.9068 91.4098 32.9816V32.9724H109.295C109.345 32.7854 109.409 32.5968 109.473 32.4078C109.63 31.947 109.787 31.4843 109.754 31.0378C109.598 29.1445 110.264 27.9911 112.815 28.0187C112.711 27.5818 112.612 27.1666 112.516 26.7661C112.306 25.8904 112.114 25.0854 111.928 24.2781C111.819 23.9408 111.76 23.5894 111.753 23.235C111.851 22.1223 111.957 21.0102 112.062 19.898C112.249 17.9284 112.436 15.9582 112.58 13.9847C112.608 13.5711 112.176 12.744 111.905 12.744C110.211 12.6133 109.448 11.4597 108.687 10.3096C108.137 9.47795 107.588 8.64813 106.689 8.20842C106.414 8.07411 106.145 7.88902 105.877 7.70536C105.395 7.37374 104.919 7.04682 104.428 7.03203C102.678 6.97274 100.931 6.98166 99.1824 6.99059C97.2722 7.00034 95.3603 7.01011 93.4409 6.93093C92.1818 6.89877 91.7039 7.11934 91.3455 8.30952C91.1913 8.65318 90.9596 8.95646 90.6686 9.19563C90.3776 9.43481 90.0352 9.60336 89.6682 9.68811C88.2023 9.8857 87.6968 10.5428 87.7749 11.9214C87.8806 13.9158 87.5222 15.6758 85.1234 15.9515V24.4482C85.4403 24.7783 85.7538 25.0694 86.0475 25.342C86.6654 25.9157 87.1957 26.4081 87.4854 27.0123C88.0414 28.1749 89.7325 31.4238 90.6056 32.2004C90.8058 32.3776 90.9943 32.5666 91.1828 32.7556ZM100.6 23.0144V22.9869H100.591C100.967 22.9869 101.343 22.9834 101.719 22.9799C102.64 22.9714 103.563 22.9628 104.493 23.0052C104.98 23.0282 105.83 23.2028 105.871 23.4234C105.946 23.9828 105.801 24.5494 105.467 25.0042C105.231 25.3066 104.918 25.5085 104.581 25.7262C104.359 25.8691 104.127 26.0188 103.9 26.2082C103.526 26.5189 103.197 26.8278 102.844 27.1599L102.843 27.1607C102.653 27.3391 102.456 27.5242 102.241 27.72C102.05 27.894 101.859 28.1114 101.668 28.3285C101.244 28.8108 100.821 29.2916 100.403 29.2916C99.4929 29.2824 98.5095 28.6712 97.7007 28.1106C96.9004 27.5033 96.178 26.7995 95.5501 26.0152C95.0784 25.401 94.6456 24.758 94.2543 24.0897C94.4605 23.9788 94.6645 23.8458 94.8687 23.7128C95.3241 23.4161 95.7801 23.1189 96.2624 23.065C97.7063 22.9676 99.1546 22.9508 100.6 23.0144ZM100.247 18.0469V17.9642H100.237C99.0308 18.0353 97.8206 18.0199 96.6163 17.9183C95.9683 17.8218 95.0401 17.3301 94.893 16.8108C94.746 16.2915 95.2974 15.4782 95.711 14.9129C96.0627 14.4413 96.4747 14.0161 96.8869 13.5906C97.1855 13.2823 97.4844 12.9737 97.7605 12.6475C98.0227 12.3278 98.3606 12.0788 98.7435 11.9229C99.1264 11.7671 99.5422 11.7093 99.9531 11.755C100.364 11.8006 100.757 11.9482 101.096 12.1843C101.436 12.4205 101.711 12.7376 101.896 13.107C102.174 13.6184 102.575 14.0626 102.977 14.5087C103.24 14.8001 103.504 15.0923 103.734 15.4046C104.047 15.8315 104.317 16.2866 104.586 16.7416C104.708 16.9478 104.831 17.1542 104.957 17.3576C104.322 17.6445 103.66 17.8662 102.981 18.0194C102.071 18.086 101.158 18.0953 100.247 18.0469Z" fill="black"/>
<path d="M119.409 32.9816C119.22 32.0352 119.094 31.0772 119.032 30.1142C119.022 27.5625 119.027 25.0103 119.033 22.4578V22.4533C119.043 18.1627 119.052 13.8717 118.986 9.58242C118.954 7.50535 119.243 6.82525 121.707 6.94013C127.258 7.23882 132.841 7.12394 138.401 6.91716C140.607 6.83904 141.31 7.66619 141.25 9.57783C141.2 11.0805 141.645 12.188 143.203 12.7945C143.448 12.9222 143.659 13.1062 143.819 13.3316C143.979 13.5569 144.083 13.817 144.122 14.0904C144.153 19.7978 144.124 25.5036 144.035 31.2078C144.035 31.6206 143.804 32.0291 143.573 32.4376C143.467 32.6249 143.361 32.8122 143.277 33H134.546C134.469 32.8145 134.373 32.6281 134.276 32.4414C134.059 32.0222 133.841 31.6013 133.847 31.1849C133.898 25.4637 133.99 19.7426 134.155 14.0215C134.201 12.5556 133.585 11.7238 132.253 11.3516C130.814 10.9518 129.739 11.3516 129.119 12.8221C128.871 13.4011 128.439 14.1639 127.924 14.3202C125.957 14.9222 126.311 16.1904 126.715 17.569C126.954 18.1968 127.109 18.8536 127.175 19.522C127.216 23.3637 127.23 27.2053 127.143 31.047C127.143 31.4978 126.885 31.9442 126.629 32.3893C126.511 32.5931 126.394 32.7965 126.302 33L119.409 32.9816Z" fill="black"/>
<path d="M269.438 31.8044L269.469 32.5527C269.475 32.6957 269.481 32.8386 269.486 32.9816L270.396 33C270.914 32.9729 271.431 32.9375 271.948 32.902C273.009 32.8292 274.071 32.7564 275.134 32.7564C281.157 32.6982 287.178 32.6691 293.198 32.6691C294.018 32.7229 294.833 32.8334 295.638 33H296.557C297.43 30.2796 297.155 29.8063 294.466 29.7833C292.557 29.7622 290.646 29.7722 288.736 29.7821C286.899 29.7917 285.062 29.8013 283.226 29.7833C282.176 29.7166 281.131 29.5861 280.097 29.3927C280.308 29.0925 280.514 28.788 280.72 28.4836C281.228 27.735 281.735 26.986 282.316 26.3001C282.485 26.1038 282.777 26.0207 283.077 25.9353C283.318 25.8668 283.564 25.7969 283.755 25.6659C284.185 25.3012 284.583 24.8999 284.945 24.4665C285.505 23.9059 286.066 23.3545 286.641 22.8122C286.81 22.6517 286.988 22.4994 287.167 22.347L287.167 22.3463C287.367 22.1761 287.566 22.0059 287.753 21.8243C288.338 21.2544 288.914 20.6632 289.48 20.0505C289.637 19.8802 289.785 19.7055 289.932 19.5313C290.183 19.2355 290.432 18.9408 290.721 18.6719C290.876 18.5205 291.029 18.3493 291.184 18.1767L291.185 18.1757C291.611 17.699 292.047 17.2116 292.559 17.1003C293.929 16.8016 294.218 16.1123 294.218 14.8808C294.168 11.5032 294.168 8.1257 294.168 4.74357C294.158 1.77961 292.532 0.0977432 289.517 0.0977432C284.242 0.0824256 278.966 0.0747724 273.691 0.0747724C271.035 0.0793677 269.266 1.87612 269.266 4.46786C269.289 8.57569 269.289 8.60362 273.484 8.60362C273.573 8.60362 273.665 8.60427 273.759 8.60494C274.597 8.61089 275.599 8.618 276.058 8.17166C276.884 7.37511 277.532 6.38929 278.179 5.40296C278.417 5.04072 278.655 4.67843 278.902 4.32541C279.193 3.87942 279.592 3.51462 280.063 3.26526C280.533 3.0159 281.059 2.89016 281.592 2.8998C282.124 2.90945 282.645 3.05418 283.106 3.32042C283.568 3.58665 283.953 3.96567 284.228 4.42191C284.304 4.54762 284.376 4.67729 284.447 4.8063C284.672 5.21485 284.894 5.61689 285.244 5.86482C287.799 7.71213 287.601 10.9242 284.844 12.5739C284.519 12.7633 284.255 13.0405 284.081 13.3735C283.837 13.9026 283.686 14.4895 283.535 15.0762C283.141 16.6092 282.747 18.1412 280.69 18.6397C280.644 18.6489 280.602 18.773 280.602 18.8419C280.63 21.0109 279.123 21.1487 277.487 21.1855C277.17 21.1855 276.568 21.4704 276.568 21.645C276.443 23.6254 275.143 23.7589 273.799 23.8969C273.353 23.9427 272.902 23.989 272.487 24.1035C272.427 25.7486 271.995 27.1226 269.872 26.8975C269.693 26.8791 269.298 27.288 269.298 27.4948C269.316 28.9177 269.377 30.3576 269.437 31.8012L269.438 31.8044Z" fill="black"/>
<path d="M71.6776 32.9816C71.5587 32.7727 71.4076 32.5638 71.2565 32.3548C70.9289 31.9016 70.6009 31.4478 70.5977 30.9919C70.567 25.5621 70.5705 20.1337 70.5741 14.706C70.577 10.4093 70.5798 6.11274 70.5656 1.81642C70.5656 0.557309 70.9378 0.015067 72.2566 0.0518293C74.7013 0.116163 77.146 0.148334 79.6091 0.0839997C81.1026 0.0426421 81.1393 0.883577 81.1347 1.97726C81.1255 5.65405 81.1237 9.33084 81.1219 13.0094V13.0107C81.1191 18.5267 81.1163 24.0467 81.0888 29.5765C81.0888 30.3184 80.8925 31.0603 80.6962 31.8021C80.5921 32.1953 80.4881 32.5885 80.4133 32.9816H71.6776Z" fill="black"/>
<path d="M212.21 32.2351C212.341 32.4841 212.472 32.7329 212.574 32.9817L221.75 32.9908C221.935 32.0467 222.06 31.0922 222.127 30.1326C222.153 27.7063 222.15 25.2811 222.147 22.8559C222.144 20.0126 222.14 17.1694 222.182 14.3248C222.192 13.7566 222.457 13.1906 222.722 12.6253C222.843 12.3676 222.964 12.1101 223.06 11.8525L226.231 13.0795C226.566 13.2076 226.928 13.3974 227.289 13.587C228.069 13.996 228.846 14.4036 229.342 14.1869C230.933 13.4775 230.759 12.158 230.586 10.8383C230.508 10.2518 230.431 9.66519 230.509 9.13212C230.587 8.59426 230.207 7.97738 229.846 7.39059C229.738 7.21535 229.631 7.0428 229.539 6.87584C229.499 6.80682 229.286 6.83679 229.058 6.86888C228.922 6.88806 228.78 6.90801 228.666 6.90801C227.216 6.91647 225.765 6.94481 224.314 6.97315C221.034 7.0372 217.755 7.10124 214.49 6.93558C212.128 6.8161 211.599 7.51918 211.599 9.64679C211.643 13.3406 211.638 17.0356 211.633 20.7306C211.629 24.0366 211.624 27.3424 211.655 30.6473C211.655 31.1782 211.933 31.707 212.21 32.2351Z" fill="black"/>
</svg>
