<svg width="80" height="80" viewBox="0 0 80 80" fill="none" xmlns="http://www.w3.org/2000/svg">
<path d="M33.173 39.9193C32.9685 40.692 32.7836 41.391 32.5539 41.4092C31.2044 41.4465 29.859 41.2434 28.5802 40.8094C28.4114 40.758 28.38 40.2445 28.3452 39.6737C28.328 39.3932 28.31 39.0989 28.2745 38.8388C26.5933 38.8975 26.4764 37.937 26.9259 36.1919C27.1798 35.2024 27.1006 34.1254 27.0217 33.0513C26.9901 32.6227 26.9587 32.1946 26.9484 31.7727C26.917 30.6138 27.3979 30.0366 28.5981 30.0998C28.9881 30.1207 29.3812 30.1096 29.7741 30.0985C30.3143 30.0832 30.8543 30.068 31.3851 30.1359C32.01 30.2125 32.8595 30.4154 33.1158 30.8528C33.2927 31.1548 33.0967 31.5923 32.8993 32.0331C32.8107 32.2306 32.7219 32.429 32.6662 32.616C32.6289 32.7543 32.6044 32.8999 32.5799 33.0459C32.566 33.1283 32.5521 33.2111 32.5359 33.2924C32.778 33.2924 33.0331 33.2675 33.284 33.243C33.8531 33.1874 34.4006 33.134 34.725 33.3781C34.9963 33.5814 35.008 34.1319 35.0198 34.6834C35.0249 34.9269 35.0301 35.1706 35.0577 35.3847C35.0577 35.419 35.0667 35.4551 35.0756 35.4906C35.0807 35.5113 35.0858 35.5317 35.0891 35.5515C35.3657 37.0618 35.4917 37.7496 35.2094 38.1407C34.9732 38.4679 34.4515 38.5875 33.4934 38.8073C33.377 39.1486 33.2727 39.5427 33.173 39.9193Z" fill="black"/>
<path d="M27.3091 20.9928C27.4493 21.2313 27.6039 21.4943 27.753 21.7936C27.0698 22.7315 27.3799 23.5161 28.9532 23.7416C29.5354 23.8246 30.1218 23.8762 30.7081 23.9277C30.9819 23.9518 31.2556 23.9759 31.529 24.0032C32.9 24.1429 33.0034 23.3403 32.8775 22.2445C32.6518 20.8831 32.566 19.502 32.6213 18.123C32.7578 16.7034 32.8448 16.0023 32.5378 15.6858C32.2382 15.3771 31.5636 15.4346 30.1939 15.5482C30.1193 15.5558 30.0463 15.5725 29.9735 15.5891C29.8754 15.6115 29.7776 15.6338 29.677 15.6338C27.3934 15.8638 27.2046 16.1479 27.7396 17.6991C27.5849 18.0171 27.4271 18.2903 27.2862 18.5346C27.0093 19.0143 26.7971 19.3819 26.8001 19.7554C26.8031 20.132 27.0268 20.5126 27.3091 20.9928Z" fill="black"/>
<path fill-rule="evenodd" clip-rule="evenodd" d="M21.3969 80H58.5852V77.5605H66.0562C64.802 74.8413 66.0607 72.9113 68.978 72.7445C69.5669 72.711 70.1538 72.6672 70.7109 72.6256L70.7137 72.6254C70.9806 72.6055 71.2406 72.5861 71.4908 72.5686C71.4908 72.2627 71.4703 71.9592 71.4502 71.6614C71.4071 71.024 71.3658 70.4131 71.5313 69.863C72.0257 68.2126 73.3383 67.7436 74.9701 67.9917C76.6018 68.2397 77.3435 67.6354 77.1727 65.8723C77.1136 65.2606 77.2396 64.6186 77.3646 63.9823C77.4202 63.6992 77.4756 63.4173 77.5143 63.1396L80 62.9773C78.6272 62.815 77.9602 62.7361 77.6777 62.3638C77.4108 62.0119 77.4872 61.398 77.6357 60.2042L79.7574 59.9831V19.8771L77.784 19.6697C77.1367 17.3654 77.2671 17.1851 79.9642 16.8739L77.5053 16.689C77.4669 16.3768 77.4152 16.0638 77.3634 15.7509C77.2455 15.0377 77.1276 14.3247 77.1682 13.6227C77.2536 12.1662 76.7007 11.7288 75.3252 11.819C75.2284 11.8253 75.1306 11.8324 75.0324 11.8396C73.7347 11.9343 72.3459 12.0356 71.765 10.4301C71.5454 9.82122 71.4624 9.16255 71.3727 8.45123C71.3303 8.11418 71.2863 7.76531 71.2256 7.40432C70.8832 7.32072 70.4996 7.24621 70.0917 7.16698L70.0912 7.16688C69.091 6.97259 67.9438 6.74976 66.8968 6.29503C64.8515 5.41119 64.7391 4.46424 66.3079 2.34034H61.143C58.6841 2.34485 58.6841 2.34485 58.383 0H21.5902L21.3474 2.30427H13.9439C15.306 4.87008 14.0473 6.84516 11.1435 7.07514C10.3763 7.13491 9.60915 7.1854 8.78832 7.23942C8.61836 7.25061 8.4461 7.26195 8.27107 7.27355C8.37859 7.71973 8.46261 8.17129 8.52279 8.62635C8.68012 10.5608 7.54285 11.8099 5.60095 11.8099C5.44923 11.8111 5.30479 11.8114 5.16739 11.8116C3.26104 11.815 2.70857 11.816 2.8679 14.3397C2.9072 14.828 2.78586 15.3265 2.65568 15.8613C2.59232 16.1216 2.52686 16.3905 2.47682 16.671H0V59.947L2.35096 60.1905C2.54088 61.4533 2.6375 62.0956 2.36205 62.4224C2.07683 62.7608 1.3927 62.7608 0.000169761 62.7608L0 63.1126H2.47682C2.51751 63.4081 2.57571 63.7054 2.63393 64.0029C2.76226 64.6584 2.89069 65.3144 2.83194 65.9534C2.67011 67.6715 3.42081 68.1044 4.95815 67.9917C5.0611 67.9842 5.16562 67.9753 5.27102 67.9664L5.27244 67.9663L5.27394 67.9661C6.378 67.8724 7.57717 67.7706 8.07328 69.1731C8.3879 70.254 8.64301 71.3514 8.83745 72.4604C9.12507 72.5189 9.45637 72.5673 9.81458 72.6196C10.6991 72.7487 11.7481 72.9018 12.7078 73.2901C15.0992 74.2731 15.288 75.1344 13.854 77.4297H21.3969V80ZM20.3405 12.2969L20.3001 11.7288C20.4826 11.6365 20.6671 11.5211 20.8533 11.4046C21.2862 11.1337 21.7283 10.8571 22.1746 10.854C27.1971 10.7728 32.2197 10.7728 37.2423 10.854C37.6494 10.8601 38.0565 11.1506 38.4651 11.4422C38.6565 11.5788 38.8482 11.7156 39.0403 11.8235L38.856 12.3014L41.1351 12.4367L42.7578 18.9347L44.1378 16.8649L44.5874 16.9235C44.4825 19.0098 44.3716 21.1052 44.2547 23.2095C44.2457 23.3628 44.1289 23.6604 44.0569 23.6604C41.9532 23.683 41.1126 25.3334 40.3664 26.817L41.6071 27.1777C41.243 28.9228 41.4228 30.19 43.6299 30.0411C43.8996 30.0231 44.4885 30.8168 44.4885 31.2677C44.5244 33.2969 44.5124 35.3261 44.5005 37.3553C44.4945 38.3699 44.4885 39.3845 44.4885 40.3991C44.4885 41.346 44.0884 41.8556 43.1129 41.7519C41.8408 41.6391 41.4767 42.3877 41.4318 43.4429C41.414 44.0073 41.4196 44.5697 41.4256 45.1599V45.1603C41.4286 45.4659 41.4318 45.7789 41.4318 46.1034C41.0265 46.183 40.6166 46.2372 40.2046 46.2657C39.3839 46.2669 38.5631 46.2684 37.7424 46.2699C32.5486 46.2793 27.3548 46.2887 22.1611 46.2341C21.5362 46.2296 20.8979 45.702 20.363 45.1654C18.8841 45.1068 17.8862 44.6829 18.075 42.8792C18.1109 42.5681 17.8862 41.9368 17.7334 41.9368C16.1488 41.7774 16.2682 40.7954 16.3796 39.8788C16.4101 39.6279 16.4401 39.3819 16.4343 39.159C16.3826 37.0163 16.3912 34.8806 16.4002 32.6765L16.4002 32.6748C16.4037 31.8135 16.4073 30.9414 16.4073 30.0547C17.9761 30.235 18.2593 29.3873 18.2053 28.1472C18.1537 26.8929 18.8303 26.8702 19.6199 26.8436C20.068 26.8285 20.5524 26.8122 20.9609 26.569C20.7408 26.4837 20.5341 26.3789 20.3419 26.2815C19.9648 26.0904 19.6436 25.9276 19.3876 25.9963C17.8272 26.4236 17.8336 25.5093 17.8403 24.5457C17.8408 24.4822 17.8412 24.4184 17.8412 24.3549V15.0431C17.8457 12.4548 17.8457 12.4548 20.3405 12.2969ZM47.0372 68.8935H32.9674L32.6617 67.0943H23.5456C24.7008 64.8261 23.9861 63.6988 21.4239 63.5184C20.5771 63.4704 19.7263 63.4863 18.8703 63.5023H18.8695C18.4397 63.5103 18.0086 63.5184 17.576 63.5184C18.0031 60.3213 17.9177 60.2537 13 59.9109V50.7841H21.9903L22.3364 52.5427H27.4294C26.3595 54.9281 26.9529 55.8571 29.6005 55.9833C31.1 56.0524 32.606 56.0362 34.1125 56.02C34.7693 56.0129 35.4261 56.0059 36.0825 56.0059H49.568C50.2033 56.015 50.8365 55.93 51.447 55.7533C53.3574 55.1265 53.5642 54.4005 52.1707 52.5968H57.6593L57.9694 50.7931H66.9597V59.8568C66.6601 59.8989 66.3605 59.9385 66.0609 59.9781C65.4614 60.0572 64.862 60.1364 64.2626 60.2356C62.0106 60.6099 61.7813 61.0067 62.5994 63.5274H59.1337C56.6658 63.559 55.8477 64.6999 56.8276 67.0222H47.3429L47.0372 68.8935ZM60.3878 10.9892V40.2999L60.4058 40.3179C59.4412 40.3179 58.4846 40.3137 57.5334 40.3095H57.5285C55.5335 40.3006 53.5621 40.2919 51.5908 40.3224C49.9281 40.3415 49.9948 39.2751 50.0545 38.3209C50.0653 38.1477 50.0759 37.9783 50.0759 37.8197C50.0383 32.463 50.0423 27.1063 50.0464 21.7496C50.0477 20.0763 50.049 18.4029 50.049 16.7296V10.9892H60.3878ZM60.4642 46.2928H50.1748C49.7364 41.8987 49.7851 41.8953 52.8529 41.6768L52.8555 41.6766C53.121 41.6577 53.4092 41.6372 53.7215 41.6121C55.2139 41.4886 56.7252 41.5194 58.2815 41.5511L58.2837 41.5511C59.0001 41.5657 59.7262 41.5805 60.4642 41.5805V46.2928Z" fill="black"/>
</svg>
