<svg width="160" height="42" viewBox="0 0 160 42" fill="none" xmlns="http://www.w3.org/2000/svg">
<path d="M95.376 7.05216C94.8009 8.70908 94.9237 9.74638 96.7393 9.68575C96.9913 9.68575 97.463 10.3054 97.5018 10.6692C97.6891 12.6561 97.8507 14.6499 97.8701 16.6436C97.8935 19.4761 97.8927 22.3086 97.8918 25.1412C97.891 27.7712 97.8902 30.4012 97.9089 33.0312C97.9089 34.4659 97.4953 35.0519 96.0674 34.9845C94.4585 34.897 92.8367 34.9172 91.2343 34.9845C89.942 35.0384 89.5543 34.4794 89.5672 33.1929C89.6125 28.2355 89.606 23.2714 89.5672 18.3073C89.6174 16.8775 89.5068 15.4466 89.2377 14.0436C89.0841 13.7018 88.8501 13.4059 88.5576 13.1834C88.2651 12.9608 87.9234 12.8189 87.5642 12.7706C87.1793 12.8114 86.8087 12.9446 86.4814 13.1596C86.1541 13.3746 85.8789 13.6656 85.6775 14.01C85.6141 14.1636 85.5676 14.3133 85.5232 14.4561C85.3729 14.9394 85.2475 15.3429 84.5791 15.5457C84.2754 15.64 83.9975 16.4415 84.004 16.8928C84.0445 19.4263 84.1155 21.9598 84.1867 24.5015L84.187 24.5125C84.2293 26.0217 84.2716 27.5338 84.3077 29.0505C84.3271 29.7476 84.3174 30.4448 84.3077 31.1419C84.298 31.839 84.2883 32.5361 84.3077 33.2333C84.3594 34.3716 83.8748 34.9239 82.828 34.9306C81.9665 34.9306 81.105 34.9344 80.2435 34.9381C78.5205 34.9456 76.7974 34.9531 75.0744 34.9306C73.8984 34.9306 73.4074 34.2571 73.4138 32.9908C73.4483 25.0159 73.4483 17.0432 73.4138 9.07283C73.4138 7.84021 73.8532 7.05216 75.0292 7.05216C79.4141 7.04324 83.785 7.04616 88.2438 7.04912H88.412C89.418 7.04977 90.4285 7.05043 91.4447 7.05097C92.2011 7.05138 92.9608 7.05171 93.7241 7.05191C94.2728 7.05208 94.8234 7.05216 95.376 7.05216Z" fill="black"/>
<path d="M146.506 18.1579C146.31 19.0024 146.115 19.8447 145.497 20.4896C145.466 20.1016 145.471 19.7115 145.51 19.3244C145.994 16.8591 145.736 16.3742 143.571 15.4649C143.421 15.3754 143.291 15.2543 143.189 15.1093C143.086 14.9644 143.014 14.7987 142.977 14.6229C142.911 14.1749 142.927 13.718 143.022 13.2758C143.326 11.2551 142.957 10.6894 141.265 9.90803C141.002 9.78618 140.851 9.38112 140.702 8.98243C140.612 8.74213 140.523 8.50419 140.412 8.33193C140.355 8.24445 140.295 8.14566 140.233 8.04309C139.971 7.60859 139.668 7.10605 139.365 7.10605C137.543 6.98482 135.708 7.02523 133.879 7.06564C133.091 7.10606 132.393 7.3216 132.393 8.41276C132.402 9.06785 132.397 9.7246 132.392 10.3815C132.383 11.6224 132.373 12.8646 132.458 14.0976C132.484 14.5421 133.181 15.3032 133.556 15.3032C135.385 15.2628 135.449 16.2462 135.113 17.6742C134.98 18.2745 134.921 18.8902 134.939 19.5062C134.965 20.3886 135.294 21.0486 136.289 20.9746C137.478 20.8803 137.717 21.5605 137.717 22.6248C137.695 23.8306 137.703 25.0205 137.711 26.0838L137.715 26.7984C137.716 27.0253 137.717 27.2443 137.717 27.4542C138.027 27.5515 138.332 27.622 138.601 27.6841C139.095 27.798 139.465 27.8835 139.507 28.0536C139.612 28.4972 139.768 28.9275 139.925 29.3587C140.301 30.394 140.68 31.4353 140.347 32.681C140.176 33.781 140.269 34.908 140.618 35.9612C140.941 37.2477 140.463 37.5777 139.365 37.5777C138.343 37.5069 137.318 37.5069 136.296 37.5777C134.844 37.7669 134.893 38.7441 134.941 39.7136C134.956 40.0212 134.972 40.3281 134.939 40.6087C134.803 41.774 135.488 41.9559 136.431 41.9559C137.31 41.9444 138.188 41.9602 139.066 41.976C140.772 42.0066 142.479 42.0373 144.185 41.8683C145.12 41.7718 146.022 41.2776 146.922 40.7846C147.278 40.5896 147.634 40.3948 147.991 40.2248C148.093 40.1742 148.14 39.983 148.185 39.8024L148.194 39.7643L148.201 39.7346L148.206 39.7169C148.214 39.6873 148.222 39.6588 148.23 39.6321C148.475 38.8238 148.715 38.0182 148.962 37.1876C149.113 36.6823 149.266 36.1678 149.425 35.6379L151.112 36.4597C151.112 35.7932 151.121 35.1527 151.13 34.5297C151.147 33.3331 151.163 32.2007 151.112 31.0712C151.066 30.0002 151.441 29.3469 152.443 29.2324C153.444 29.1179 153.741 28.5319 153.703 27.5148C153.615 25.7333 153.615 23.9483 153.703 22.1668C153.728 21.7357 154.304 20.9948 154.607 20.9948C156.371 21.0352 156.546 19.9104 156.546 18.5633C156.55 18.0877 156.541 17.6108 156.533 17.1338C156.516 16.1042 156.498 15.0744 156.604 14.0572C156.672 13.753 156.81 13.471 157.007 13.236C157.205 13.0011 157.454 12.8204 157.734 12.71C158.898 12.5417 159.15 11.922 159.091 10.8914C159.046 10.2187 159.046 9.54346 159.091 8.87077C159.201 7.44283 158.497 7.005 157.263 7.005L156.893 7.01471C155.447 7.05298 153.978 7.09187 152.585 7.005C151.073 6.9107 149.839 7.01849 150.065 9.16039L148.566 9.03916V15.1012C147.063 15.7499 146.784 16.9562 146.506 18.1579Z" fill="black"/>
<path d="M24.4691 15.2291C22.731 15.3032 22.5824 16.2193 22.6341 17.8021C22.8059 22.8807 22.7563 27.9654 22.7066 33.0504V33.0534L22.6987 33.8597C22.6197 34.1143 22.4797 34.3438 22.2921 34.5264C22.1044 34.7091 21.8752 34.8389 21.6261 34.9037C19.5908 35.0115 17.5425 35.0047 15.5008 34.9037C15.2697 34.8161 15.0638 34.6688 14.9022 34.4756C14.7406 34.2824 14.6286 34.0496 14.5768 33.7991C14.5358 27.777 14.5333 21.7549 14.5309 15.7351V15.7332C14.5299 13.2231 14.5289 10.713 14.5251 8.20391C14.5251 7.34178 14.8417 7.03193 15.6688 7.03867H34.2258C35.1368 7.03867 35.7506 7.34174 35.77 8.4868C35.77 8.89346 35.8553 9.30013 35.9408 9.70766C36.0265 10.1168 36.1125 10.5269 36.1125 10.9386C36.1125 11.922 36.3451 12.4069 37.4047 12.6359C37.7132 12.7773 37.9836 12.9957 38.1921 13.2717C38.4005 13.5477 38.5406 13.873 38.6001 14.2188C38.6543 18.356 38.6547 22.496 38.6551 26.6352C38.6553 28.9113 38.6556 31.1872 38.6647 33.4623C38.6939 33.6574 38.6795 33.8569 38.6224 34.0451C38.5654 34.2334 38.4673 34.4054 38.3359 34.5476C38.2045 34.6898 38.0433 34.7983 37.865 34.8648C37.6866 34.9312 37.4959 34.9538 37.3078 34.9306C34.6716 34.9576 32.0354 34.9576 29.3991 34.9306C28.501 34.9306 28.1069 34.385 28.1069 33.4084C28.1314 30.7197 28.1433 28.0323 28.1552 25.3451V25.3431C28.1714 21.6761 28.1876 18.0089 28.2361 14.34C28.2361 12.9121 27.59 12.6494 26.4463 12.6561C24.7987 12.6629 24.3593 13.1613 24.4691 15.2291Z" fill="black"/>
<path d="M43.9558 22.1666C43.9594 23.0023 43.963 23.8377 43.963 24.6724C43.963 25.5592 43.9676 26.446 43.9722 27.3332C43.982 29.2359 43.9918 31.1405 43.9566 33.0514C43.9372 34.3985 44.4799 34.9913 45.7722 34.9913C47.3304 34.9037 48.892 34.9037 50.4502 34.9913C51.9686 35.1327 52.5308 34.3581 52.5308 33.011V15.9566C52.5308 15.582 52.4588 15.1241 52.3894 14.6823C52.2728 13.9404 52.1634 13.2443 52.4145 13.067C53.1516 12.5461 54.3597 12.6169 55.385 12.677L55.4901 12.6831C56.9051 12.7572 57.4737 12.353 57.4285 10.7365L57.4221 10.4911C57.3788 8.82082 57.3567 7.9679 56.9366 7.52621C56.4983 7.06531 55.6268 7.0522 53.8457 7.02544L53.8295 7.02519C53.7053 7.02297 53.5726 7.03 53.4377 7.03711C52.7588 7.073 52.0257 7.11181 52.0526 5.98793C52.0849 4.82269 52.8861 4.41179 53.9393 4.41179C54.3335 4.41179 54.7283 4.42001 55.1232 4.42823C55.9129 4.44472 56.7027 4.4612 57.4866 4.41179C58.9527 4.32065 58.9444 3.39266 58.9355 2.40288C58.9333 2.14947 58.931 1.89199 58.9534 1.64348C59.0632 0.424345 58.4688 0.13472 57.4091 0.13472C56.7523 0.143477 56.0958 0.15729 55.4399 0.171103C53.0694 0.221011 50.7064 0.270755 48.3632 0.0808242C47.0104 -0.0249123 46.1561 0.690371 45.3303 1.38181C45.0519 1.61491 44.7763 1.84566 44.4864 2.0409C43.976 2.38442 44.1504 4.13565 44.3572 5.21332C44.5639 6.29104 44.6544 7.1195 43.3621 7.01175C41.5788 6.86354 41.2816 7.82672 41.4237 9.34223C41.4722 9.84164 41.4722 10.3449 41.4237 10.8442C41.2751 12.1644 41.6692 12.7774 43.0972 12.71C44.5252 12.6427 44.8224 13.3027 44.3895 14.7307C44.1389 15.5118 43.9954 16.3259 43.963 17.1488C43.9415 18.8194 43.9487 20.4939 43.9558 22.1666Z" fill="black"/>
<path d="M129.298 26.8951C131.883 26.5314 132.154 26.6661 132.361 29.2324C132.49 30.7314 132.49 32.2394 132.361 33.7385C132.282 34.0167 132.138 34.2695 131.94 34.4734C131.742 34.6772 131.498 34.8253 131.23 34.9037C128.116 35.0048 124.995 35.0249 121.88 34.9037C121.481 34.9037 121.097 34.5165 120.714 34.1298C120.539 33.9533 120.364 33.7768 120.188 33.6374L120.407 33.1794L119.115 33.3949C119.115 32.2153 119.111 31.0493 119.106 29.8923V29.8851C119.098 27.5962 119.089 25.3429 119.115 23.0895C119.134 21.8373 119.177 20.5852 119.221 19.333L119.221 19.33C119.283 17.532 119.346 15.7339 119.335 13.9359C119.247 13.6414 119.087 13.3758 118.87 13.1655C118.654 12.9552 118.389 12.8075 118.101 12.737C116.524 12.7706 116.11 12.0028 116.259 10.5614C116.308 10.0057 116.308 9.44661 116.259 8.89095C116.143 7.54384 116.647 6.92418 118.01 7.01845C119.251 7.11276 119.529 6.51332 119.257 5.23355C118.314 0.734196 118.811 0.13472 123.134 0.13472C127.457 0.13472 127.773 0.545621 126.849 5.15947C126.571 6.56048 126.888 7.08583 128.329 7.0589C128.691 7.05335 129.017 7.04468 129.31 7.03687C130.59 7.0027 131.247 6.98515 131.585 7.31905C131.941 7.67174 131.94 8.41666 131.939 9.94844C131.938 10.2678 131.938 10.6213 131.941 11.0127C131.941 12.1442 131.521 12.6359 130.429 12.6696C130.154 12.6781 129.854 12.6674 129.548 12.6564C128.639 12.624 127.682 12.5898 127.198 13.0536C126.755 13.4785 126.853 14.3217 126.952 15.1745C126.997 15.5653 127.043 15.958 127.037 16.3136C127.025 16.9623 127.013 17.611 127 18.2597C126.939 21.5042 126.878 24.7486 126.862 27.993C126.875 28.2264 126.94 28.4534 127.052 28.6557C127.165 28.8581 127.321 29.0302 127.508 29.1582C127.725 29.1887 127.946 29.1628 128.151 29.0828C128.356 29.003 128.54 28.8715 128.684 28.7003C128.965 28.1297 129.171 27.5226 129.298 26.8951Z" fill="black"/>
<path d="M102.949 8.72257V20.9207C102.946 22.5669 102.948 24.2142 102.949 25.862C102.952 28.3339 102.954 30.8072 102.942 33.2804C102.936 34.1695 103.104 34.9104 104.092 34.9104C105.45 34.9176 106.817 34.8943 108.189 34.8709C109.395 34.8503 110.604 34.8296 111.814 34.8296C113.474 34.8161 113.81 33.7385 113.81 32.2836V9.56451C113.81 8.25781 113.494 7.25422 111.969 7.25422C110.918 7.23802 109.868 7.20887 108.818 7.17977C107.246 7.13615 105.674 7.09257 104.105 7.09257C103.136 7.08583 102.949 7.82672 102.949 8.72257Z" fill="black"/>
<path d="M7.10749 17.4788C7.10749 22.6584 7.06872 27.8381 7.10749 33.011C7.10749 34.4389 6.71981 35.0923 5.28539 34.9778C3.59251 34.8363 1.89317 34.7825 0.2003 34.6882C0.142148 33.0312 0.0452279 31.3743 0.0387665 29.7106C0.0387665 20.53 0.0387681 11.3427 0 2.15538C0 0.525369 0.484599 -0.0404188 2.0224 0.134706C3.20068 0.23575 4.38494 0.23575 5.56322 0.134706C6.79734 0.0471435 7.11395 0.592725 7.10749 1.79839C7.07518 7.01172 7.10749 12.2453 7.10749 17.4788Z" fill="black"/>
<path d="M68.1349 21.1025C68.1349 25.1439 68.0832 29.2323 68.1349 33.2939C68.1349 34.641 67.6826 35.0384 66.4614 34.9845C64.8009 34.9037 63.1339 34.9374 61.4668 34.9845C60.5235 34.9845 60.1099 34.6073 60.1164 33.6037C60.1164 25.1977 60.1164 16.7895 60.1164 8.37905C60.1164 7.34851 60.601 7.03194 61.5185 7.03194C63.2372 7.06562 64.956 7.09929 66.6876 7.03194C67.8377 6.97805 68.1478 7.45626 68.1349 8.59457C68.1091 12.7504 68.1349 16.9265 68.1349 21.1025Z" fill="black"/>
<path d="M108.434 0.161665C109.727 0.161665 111.019 0.161665 112.311 0.161665C113.119 0.161665 113.875 0.161672 113.81 1.34713C113.746 2.53259 114.088 3.94704 112.699 4.08849C109.827 4.38919 106.936 4.46125 104.054 4.30403C102.186 4.203 103.168 2.39788 102.987 1.34713C102.8 0.19535 103.634 0.148194 104.428 0.161665C105.753 0.161665 107.09 0.161665 108.434 0.161665Z" fill="black"/>
<path d="M64.2323 0.161648H65.9768C68.1349 0.161648 68.0509 0.161649 68.1479 2.47868C68.2125 4.01439 67.7085 4.57344 66.2094 4.49935C64.7104 4.42526 63.1145 4.49935 61.5637 4.49935C59.5672 4.49935 60.2715 2.93671 60.1164 1.85228C59.9613 0.767855 60.3942 0.0808193 61.6283 0.202059C62.52 0.202059 63.3923 0.161648 64.2323 0.161648Z" fill="black"/>
</svg>
