<svg width="144" height="35" viewBox="0 0 144 35" fill="none" xmlns="http://www.w3.org/2000/svg">
<path fill-rule="evenodd" clip-rule="evenodd" d="M23.3277 31.9603C25.3824 31.839 25.5827 33.139 25.3114 34.9643H32.0053C33.8574 34.9643 34.7733 34.9643 35.2214 34.487C35.6598 34.0201 35.6503 33.0963 35.6315 31.2686L35.6301 31.1318C35.6172 29.8318 35.1908 29.367 33.9373 29.3334C33.4591 29.3199 32.6127 28.579 32.6127 28.1614C32.6062 27.0433 32.0958 26.693 31.2041 26.5583C30.1121 26.3967 29.7568 25.7568 30.0152 24.6656C30.0941 24.2401 30.1523 23.8108 30.1897 23.3792C29.8026 23.3593 29.423 23.2598 29.0731 23.0862C28.7231 22.9127 28.4095 22.6685 28.1506 22.3679C27.8917 22.0673 27.6924 21.7162 27.5644 21.3348C27.4364 20.9534 27.3822 20.5494 27.4048 20.1461C27.3994 18.6163 28.4547 18.4877 29.5592 18.3532C29.6659 18.3402 29.773 18.3271 29.8797 18.3128C29.9816 18.299 30.083 18.2841 30.1832 18.2668C30.054 16.5762 30.2866 15.1752 32.3607 15.1752C32.5868 15.1752 33.0068 14.3063 33.0068 13.8281C33.0908 11.1541 33.1102 8.49354 33.0068 5.79931C32.9874 5.31437 32.3413 4.4522 32.0053 4.4522C30.1703 4.51954 30.1251 3.30044 30.2414 2.02067C30.3835 0.458014 29.8472 0 28.3482 0C19.7977 0.0987888 11.2471 0.121235 2.69662 0.0673392C1.11359 0.0605971 0.725922 0.559063 0.725922 2.14865C0.764688 12.0432 0.764694 21.9108 0.764694 31.7851C0.762604 32.3411 0.792818 32.8967 0.855148 33.4488C0.858579 33.6605 0.904133 33.8691 0.988922 34.0615C1.07371 34.2538 1.19591 34.4257 1.34776 34.5663C1.49962 34.7069 1.67782 34.813 1.87108 34.878C2.06434 34.9431 2.26844 34.9656 2.47047 34.9441C3.1512 34.9441 3.83238 34.9473 4.51387 34.9504H4.51575C6.4663 34.9595 8.41953 34.9685 10.3727 34.9037C10.7798 34.8835 11.5099 34.2436 11.5099 33.9001C11.4712 31.6183 11.384 29.3366 11.2966 27.052L11.2965 27.0504L11.2964 27.0477C11.2378 25.5166 11.1792 23.9842 11.1351 22.4496C11.1222 22.032 11.4195 21.2372 11.581 21.2372C13.1637 21.1578 14.7501 21.2413 16.3171 21.4864C16.5782 21.54 16.74 22.1195 16.9247 22.7807C17.0188 23.1176 17.119 23.4763 17.2411 23.7968C18.7079 23.5879 19.6447 24.3019 19.5478 26.2013C19.5478 26.3852 19.7307 26.5748 19.9173 26.7682C20.0178 26.8723 20.1193 26.9776 20.194 27.0837C20.4812 27.4873 20.7604 27.8965 21.0852 28.3725L21.0888 28.3778L21.0909 28.381C21.2684 28.6412 21.4601 28.9221 21.6736 29.2323C21.713 29.3111 21.7543 29.3945 21.7975 29.482L21.8244 29.5364C22.0459 29.9844 22.3146 30.5278 22.617 31.0712L22.6402 31.1117L22.661 31.1483L22.6735 31.1702C22.8644 31.506 23.1226 31.9603 23.3277 31.9603ZM21.8489 12.3643C21.7003 12.5621 21.5515 12.7603 21.4346 12.9592C21.2795 14.798 20.7884 15.4177 18.7466 15.4581C17.3849 15.4851 16.0233 15.4761 14.6635 15.4671C13.9843 15.4626 13.3057 15.4581 12.6277 15.4581C11.0585 15.4314 11.0893 15.0871 11.2221 13.5984L11.2256 13.5587C11.4432 11.0368 11.4215 8.49868 11.161 5.98118C11.0382 4.78898 11.2256 4.41853 12.253 4.41853H20.3038C20.5178 4.39242 20.7348 4.41454 20.9399 4.48336C21.145 4.55218 21.3336 4.6661 21.4929 4.81747C21.6522 4.96879 21.7784 5.154 21.8631 5.36058C21.9478 5.56716 21.9889 5.79027 21.9837 6.01485C22.0375 6.66202 22.1218 7.30338 22.2058 7.94261C22.3439 8.99299 22.4813 10.0385 22.4813 11.0935C22.4857 11.5164 22.1681 11.9393 21.8489 12.3643Z" fill="black"/>
<path d="M102.641 24.3693C102.625 24.5423 102.606 24.7147 102.587 24.8869C102.543 25.2844 102.499 25.6806 102.499 26.0801C102.499 26.8762 102.493 27.673 102.487 28.4703V28.4718C102.476 30.0688 102.464 31.6679 102.499 33.267C102.499 34.4726 102.111 35.0115 100.916 34.9778C99.2551 34.9239 97.5881 34.9306 95.921 34.9778C94.7967 34.9778 94.4284 34.4726 94.4284 33.3478C94.4542 22.7595 94.4542 12.1712 94.4284 1.58284C94.4284 0.41086 94.8484 0.00674214 95.9468 0.053896C97.6139 0.114493 99.2809 0.127977 100.948 0.053896C102.182 0 102.518 0.552321 102.499 1.74453C102.464 3.71007 102.476 5.67861 102.487 7.64612V7.65007C102.493 8.63422 102.499 9.61861 102.499 10.6018V12.38C104.922 12.7033 105.212 12.4406 105.167 10.0495C106.912 10.0495 108.333 9.64533 107.7 7.05216C108.773 7.12135 109.836 7.0832 110.891 7.04533C113.431 6.95415 115.925 6.86465 118.413 8.27799V11.8344C117.95 11.9302 117.494 12.0159 117.045 12.1003C115.978 12.3009 114.95 12.4942 113.955 12.7976C113.7 12.9153 113.477 13.0968 113.306 13.3259C113.134 13.5551 113.02 13.8247 112.972 14.111C112.972 15.155 112.559 15.5592 111.68 15.5928C110.801 15.6265 110.388 16.1856 110.388 17.1084C110.388 17.4081 110.329 17.715 110.27 18.019C110.189 18.4391 110.109 18.8538 110.188 19.2368C110.323 19.8969 110.898 21.0419 111.247 21.0419C112.719 20.9306 112.921 21.8813 113.129 22.8614C113.148 22.9486 113.166 23.0362 113.186 23.1232C113.252 23.675 113.282 24.2308 113.276 24.7869C113.27 25.2111 113.315 25.6344 113.412 26.0464C114.566 26.1274 115 27.1399 115.368 27.9972C115.642 28.6374 115.879 29.191 116.352 29.2054C118.739 29.2806 118.679 30.5838 118.615 31.9874C118.605 32.2175 118.594 32.4504 118.594 32.681C118.594 34.7825 118.419 34.9711 116.391 34.9845H109.781C108.798 34.9845 108.172 34.8094 108.094 33.5498C108.036 32.4807 107.756 31.4374 107.274 30.4919C107.104 30.1665 106.653 29.9988 106.144 29.8096C105.895 29.717 105.631 29.6191 105.38 29.495C105.309 29.2086 105.359 28.8377 105.411 28.4529C105.544 27.4717 105.688 26.4005 103.868 26.4102C103.72 25.8614 103.582 25.3422 103.447 24.8334C103.4 24.6553 103.353 24.4784 103.306 24.3019L102.641 24.3693Z" fill="black"/>
<path fill-rule="evenodd" clip-rule="evenodd" d="M58.1286 34.8229H41.8847C41.8847 32.6675 41.6069 32.4317 39.4165 31.9872C39.0223 31.9064 38.5959 31.3136 38.4214 30.8691C38.3075 30.3814 38.2943 29.874 38.3827 29.3805L38.3857 29.3227C38.469 27.7399 38.5496 26.2063 36.3473 26.0599C36.0501 26.0599 35.5784 25.2651 35.5655 24.834C35.4944 22.3217 35.4621 19.8093 35.5655 17.3037C35.5655 16.7985 36.2117 16.2327 36.7156 15.8622C37.2349 15.5776 37.7893 15.3691 38.3633 15.2426C38.3105 13.9203 38.3256 12.596 38.4085 11.2753C38.4727 11.0006 38.6005 10.7464 38.7808 10.535C38.961 10.3237 39.1881 10.1616 39.4423 10.0629C41.5358 9.68575 41.8912 9.34897 41.8266 7.15991H58.7941C58.5485 9.13342 59.2981 10.0697 61.1719 10.0764C61.5143 10.0764 62.0764 10.7971 62.1475 11.2484C62.5223 13.6058 62.7936 15.9633 63.0586 18.3544L63.5884 18.5362L64.8807 17.3104V22.5507C64.8807 22.7864 64.648 23.2242 64.4801 23.2242C62.4781 23.5097 62.4255 24.867 62.3734 26.2133C62.3542 26.7094 62.3352 27.2039 62.2186 27.6427C62.1426 28.0883 62.1426 28.5443 62.2186 28.9899C62.3478 30.6805 62.2186 32.0411 60.0476 32.2499C59.6489 32.2808 59.3032 32.8805 58.8788 33.6166C58.6566 34.002 58.4128 34.4248 58.1286 34.8229ZM48.1651 15.1685C47.9402 15.2947 47.6741 15.3621 47.4078 15.4294C46.6795 15.6137 45.9499 15.7983 46.0587 17.1891C46.2201 19.1268 46.1742 21.0875 46.1284 23.0451C46.1136 23.6735 46.0989 24.3015 46.0911 24.9283C46.0911 24.9629 46.0909 24.9974 46.0906 25.0316L46.0902 25.0923C46.0847 25.7902 46.08 26.379 47.0215 26.4977C47.7969 26.5987 48.3138 26.9018 48.3719 27.9795C48.3719 28.4645 49.2248 29.1919 49.7934 29.3266C50.6851 29.5489 51.9192 29.6567 52.1324 28.2894C52.3263 27.0635 52.714 26.3698 54.0062 26.3091C54.2001 26.3091 54.4908 25.4335 54.4973 24.962C54.5274 23.233 54.5174 21.5009 54.5073 19.7699V19.7656C54.5023 18.9018 54.4973 18.0384 54.4973 17.1757C54.4973 16.3068 54.4973 15.6198 53.4247 15.5524C52.6235 15.5053 52.2358 15.1011 52.2164 14.1649C52.1971 13.2287 51.5703 12.6494 50.4848 12.6426C48.7273 12.6359 48.443 12.8851 48.1651 15.1685Z" fill="black"/>
<path d="M123.724 7.15317C124.235 9.48369 122.923 9.81372 121.14 9.59144C121.122 9.96863 121.097 10.3324 121.073 10.6864C121.016 11.5082 120.963 12.2774 121.017 13.04C121.09 15.3571 121.228 17.6674 121.43 19.9709C121.463 20.3144 122.012 20.8803 122.29 20.8803C124.28 20.7455 124.842 21.8502 124.596 23.8708C125.287 23.8708 125.972 23.8693 126.647 23.8678H126.727C128.09 23.8648 129.412 23.8619 130.657 23.8708C132.544 23.8843 133.022 24.4029 132.977 25.649C133.26 25.9809 133.556 26.2686 133.824 26.5283C134.339 27.0277 134.747 27.4237 134.747 27.8314C134.786 29.1852 133.61 29.3873 132.531 29.3873C132.299 29.3873 132.066 29.3813 131.832 29.3753C131.365 29.3633 130.897 29.3513 130.431 29.3873C129.307 29.4748 128.635 29.037 128.706 27.8111C128.764 26.7402 128.208 26.4102 127.336 26.4102C125.829 26.3445 124.319 26.3603 122.813 26.4573C122.148 26.5179 121.017 27.0096 120.978 27.4003C120.88 28.9371 120.928 30.4803 121.12 32.0074C121.18 32.1847 121.281 32.3434 121.416 32.4683C121.55 32.5932 121.713 32.6803 121.889 32.7214C123.395 32.6944 123.679 33.5094 123.181 34.8565H139.587C139.617 34.6147 139.625 34.3364 139.632 34.0671C139.648 33.5185 139.663 33.0071 139.858 32.9167C141.364 32.2627 142.567 31.0234 143.212 29.4614C143.293 29.2785 143.415 29.1013 143.536 28.9255C143.74 28.6285 143.942 28.3355 143.942 28.0267C144.026 26.1946 144.013 24.349 143.942 22.5102C143.838 22.0196 143.631 21.5593 143.334 21.1631C143.234 20.9823 143.094 20.8057 142.955 20.6303C142.701 20.3093 142.449 19.992 142.449 19.6611C142.391 18.442 141.816 18.1658 140.795 18.1658H136.763C135.425 18.1658 134.756 18.1658 134.337 17.8287C133.918 17.4917 133.749 16.8182 133.41 15.4716C132.305 15.5616 131.195 15.5367 130.095 15.3975C129.793 15.2676 129.524 15.0661 129.31 14.8088C129.096 14.5516 128.942 14.2457 128.861 13.9157C128.822 13.6126 129.591 12.8919 130.114 12.7168C130.801 12.5781 131.504 12.5644 132.195 12.6763C133.371 12.7235 134.25 13.1074 134.502 14.5151C134.578 14.7565 134.712 14.9737 134.89 15.1468C135.069 15.3199 135.286 15.4432 135.523 15.5052C137.612 15.5391 139.702 15.4582 141.784 15.2628C142.126 15.2291 142.643 14.3131 142.643 13.8281C142.532 12.5713 142.336 11.3243 142.055 10.0966C142.049 10.036 141.855 10.036 141.758 10.036C139.684 10.3054 139.07 9.17384 139.387 7.15317H123.724Z" fill="black"/>
<path d="M71.342 7.16665H86.1256C86.048 8.74279 86.2613 10.0562 88.1545 10.0697C88.2969 10.1119 88.4265 10.1917 88.5306 10.3015C88.6348 10.4112 88.71 10.5471 88.7489 10.6961C88.7037 12.0432 89.395 12.4878 90.558 12.7572C90.8398 12.9023 91.0836 13.1168 91.2682 13.382C91.4528 13.6471 91.5727 13.9551 91.6177 14.2794C91.9214 18.3207 91.8826 18.3207 88.0575 18.3207C87.486 18.3207 86.9139 18.317 86.3412 18.3133H86.3383C85.1897 18.3058 84.039 18.2983 82.8884 18.3207C81.9321 18.3207 81.3442 18.1052 81.3183 16.9736C81.3183 16.6269 81.2584 16.2803 81.1985 15.9336C81.142 15.6067 81.0856 15.2798 81.0793 14.953C81.0793 13.067 80.6657 12.5282 79.2507 12.6292C77.9584 12.7235 77.6224 13.3027 77.8809 15.2695C76.3108 15.3571 75.7034 16.1317 75.8714 17.856C76.0588 19.9102 76.0588 21.9783 75.8714 24.0325C75.7357 25.6895 76.1234 26.6324 77.8098 26.6122C77.6031 28.7945 77.9261 29.3065 79.4252 29.3671C80.6593 29.4412 81.1503 28.9562 81.1762 27.636C81.2408 23.7362 81.2796 23.7362 84.9819 23.7362H90.151C91.1525 23.7362 91.6694 24.1268 91.6307 25.2112V27.3868C91.6824 28.5588 91.566 29.4614 90.0605 29.5152C89.8259 29.5152 89.6096 29.9863 89.3927 30.4583C89.293 30.6754 89.1931 30.8926 89.0914 31.0645C89.0073 31.2098 88.9254 31.4003 88.8448 31.5878C88.6901 31.9477 88.54 32.297 88.3871 32.297C86.7523 32.297 86.1579 33.1121 86.4486 34.8027H71.342C71.4519 32.9571 70.7799 31.9872 68.9836 31.9266C68.7176 31.8288 68.4801 31.6618 68.2935 31.4413C68.1069 31.2208 67.9774 30.9543 67.9175 30.667C67.8406 26.9509 67.8431 23.225 67.8456 19.506L67.8464 17.5394C67.8464 17.3253 67.8458 17.1119 67.8447 16.899C67.8441 16.7599 67.8433 16.6211 67.8423 16.4825L67.8395 16.0671C67.8288 14.5566 67.8183 13.0665 67.911 11.565C67.9498 11.0194 68.5572 10.0629 68.8802 10.0562C70.767 10.0764 71.4906 9.11324 71.342 7.16665Z" fill="black"/>
</svg>
